# xmcd
#
# Track frame offsets:
#	150
#	15032
#	53820
#	77480
#	112485
#	128045
#	148727
#	208370
#	215930
#
# Disc length: 3336 seconds
#
# Revision: 1
# Processed by: cddbd v1.5.1PL2 Copyright (c) Steve Scherf et al.
# Submitted via: audiograbber 1.83.01
#
DISCID=870d0609
DTITLE=Altered States - 6
DYEAR=1996
DGENRE=Jazz
TTITLE0=Polidori
TTITLE1=Alex
TTITLE2=Travis
TTITLE3=Adel
TTITLE4=Gabo
TTITLE5=Montaglie
TTITLE6=Jacob
TTITLE7=Hannibal
TTITLE8=Kaiser
EXTD=
EXTT0=
EXTT1=
EXTT2=
EXTT3=
EXTT4=
EXTT5=
EXTT6=
EXTT7=
EXTT8=
PLAYORDER=
